# xmcd
#
# Track frame offsets:
#	150
#	11971
#	24569
#	37168
#	48129
#	58469
#	72052
#	87102
#	104237
#	117415
#
# Disc length: 1737 seconds
#
# Revision: 0
# Processed by: cddbd v1.5.1PL2 Copyright (c) Steve Scherf et al.
# Submitted via: EasyCDDAExtractor 9.0.0.1
#
DISCID=8f06c70a
DTITLE=Danny Davis - Cotton Eyed Joe 
DYEAR=2003
DGENRE=Country
TTITLE0=Cotton Eyed Joe 
TTITLE1=Amanda
TTITLE2=Luckenback Texas
TTITLE3=(I Love You) Still
TTITLE4=Cotton Fields
TTITLE5=Colinda
TTITLE6=You Needed Me
TTITLE7=Urban Hero
TTITLE8=Warm Waves
TTITLE9=Wildwood Brass
EXTD=
EXTT0=
EXTT1=
EXTT2=
EXTT3=
EXTT4=
EXTT5=
EXTT6=
EXTT7=
EXTT8=
EXTT9=
PLAYORDER=
